<?xml version="1.0" encoding="UTF-8" standalone="no"?>
<svg
   xmlns:dc="http://purl.org/dc/elements/1.1/"
   xmlns:cc="http://creativecommons.org/ns#"
   xmlns:rdf="http://www.w3.org/1999/02/22-rdf-syntax-ns#"
   xmlns:svg="http://www.w3.org/2000/svg"
   xmlns="http://www.w3.org/2000/svg"
   xmlns:sodipodi="http://sodipodi.sourceforge.net/DTD/sodipodi-0.dtd"
   xmlns:inkscape="http://www.inkscape.org/namespaces/inkscape"
   version="1.1"
   width="70"
   height="70"
   id="svg20"
   viewBox="0 0 250 200"
   sodipodi:docname="IconeLogo.svg"
   inkscape:version="0.92.4 (5da689c313, 2019-01-14)">
  <metadata
     id="metadata26">
    <rdf:RDF>
      <cc:Work
         rdf:about="">
        <dc:format>image/svg+xml</dc:format>
        <dc:type
           rdf:resource="http://purl.org/dc/dcmitype/StillImage" />
        <dc:title></dc:title>
      </cc:Work>
    </rdf:RDF>
  </metadata>
  <defs
     id="defs24" />
  <sodipodi:namedview
     pagecolor="#ffffff"
     bordercolor="#666666"
     borderopacity="1"
     objecttolerance="10"
     gridtolerance="10"
     guidetolerance="10"
     inkscape:pageopacity="0"
     inkscape:pageshadow="2"
     inkscape:window-width="1920"
     inkscape:window-height="1027"
     id="namedview22"
     showgrid="false"
     inkscape:zoom="2.5444744"
     inkscape:cx="63.696975"
     inkscape:cy="39.466667"
     inkscape:window-x="-8"
     inkscape:window-y="-8"
     inkscape:window-maximized="1"
     inkscape:current-layer="svg20" />
  <path
     d="m 126.0219,183.00236 c 0,8.56131 6.94136,15.50106 15.5024,15.50106 8.56174,0 15.50152,-6.93975 15.50152,-15.50106 0,-7.54462 -5.39368,-13.82377 -12.53266,-15.21031 -0.83633,-2.75711 -0.4949,-6.05546 2.64153,-9.58583 4.12393,-0.39922 9.41307,1.21391 11.89218,10.7297 -0.002,0.0991 -0.028,0.18984 -0.028,0.2887 0,1.62888 0.34478,3.17389 0.95431,4.57726 0,0.007 0.001,0.009 0.001,0.0159 l 0.002,-0.005 c 1.77583,4.084 5.83695,6.9452 10.57558,6.9452 6.3693,0 11.53281,-5.16354 11.53281,-11.53417 0,-6.37047 -5.16351,-11.53417 -11.53281,-11.53417 -1.35499,0 -2.63481,0.27714 -3.84129,0.70441 -4.69442,0.49241 -12.43732,0.002 -15.93312,-7.53563 0,-0.0412 0.011,-0.0858 0.011,-0.12958 0,-1.86733 -0.5631,-3.59898 -1.51447,-5.05269 0,-0.007 -0.002,-0.0159 -0.002,-0.0159 l -0.002,0.005 c -1.65446,-2.51452 -4.49184,-4.18201 -7.72585,-4.18201 -5.1063,0 -9.24886,4.14075 -9.24886,9.24774 0,2.79273 1.26389,5.26624 3.22099,6.96086 h -0.047 c 0,0 4.27762,3.08101 2.80688,10.16348 -6.99072,1.50052 -12.23453,7.70858 -12.23453,15.14884 z"
     style="fill:#fff;fill-opacity:1;fill-rule:evenodd;stroke-width:2.24334431"
     id="path2"
     inkscape:connector-curvature="0" />
  <path
     d="m 162.74276,69.905474 c -7.40462,3.08661 -12.60939,10.388724 -12.60939,18.911685 0,11.314751 9.17169,20.486441 20.48598,20.486441 4.23971,0 8.1779,-1.2879 11.446,-3.49311 v -0.001 c 0.0157,-0.009 0.0313,-0.0247 0.047,-0.033 0.44079,-0.32252 6.14654,-4.23793 9.14073,4.98267 0.13661,1.00837 0.37242,1.98133 0.76455,2.88248 0.001,0.009 0.007,0.0159 0.007,0.033 l 0.005,-0.007 c 1.68206,3.83143 5.49911,6.51603 9.95371,6.51603 6.00701,0 10.87821,-4.87007 10.87821,-10.87817 0,-6.00812 -4.8712,-10.877791 -10.87821,-10.877791 -1.48172,0 -2.88964,0.30107 -4.17643,0.83698 -2.60025,0.12709 -5.80846,-0.52214 -7.8241,-3.8011 0.71628,-2.08675 1.12256,-4.31529 1.12256,-6.64455 0,-7.07485 -3.58577,-13.312678 -9.04068,-16.993106 v 0 c 0,0 -9.42854,-8.896921 -1.28229,-19.248368 v -0.0013 c 3.60326,-2.44506 5.97267,-6.574602 5.97267,-11.257774 0,-7.508729 -6.08821,-13.596512 -13.5987,-13.596512 -7.50848,0 -13.59646,6.087783 -13.59646,13.596512 0,5.252557 2.98253,9.799796 7.34179,12.064876 l 0.002,0.0068 c 0,0 3.0514,10.728134 -4.16229,16.51799 z"
     style="fill:#fff;fill-opacity:1;fill-rule:evenodd;stroke-width:2.24334431"
     id="path4"
     inkscape:connector-curvature="0" />
  <path
     d="m 185.40884,64.041225 c -1.85435,-6.533125 1.94004,-13.332908 8.47311,-15.187302 6.53328,-1.854315 13.33151,1.940095 15.18587,8.473126 1.85434,6.533106 -1.93847,13.331746 -8.47132,15.18589 -6.53352,1.854305 -13.33288,-1.938281 -15.18766,-8.471714 z"
     style="fill:#fff;fill-opacity:1;fill-rule:evenodd;stroke-width:2.24334431"
     id="path6"
     inkscape:connector-curvature="0" />
  <path
     d="m 132.1173,30.25057 c 1.50348,1.466476 4.36329,5.32638 3.0653,12.688372 v 0 c -4.1724,2.425924 -6.98264,6.933488 -6.98264,12.107106 0,5.855758 3.59339,10.865157 8.69432,12.960902 1.1625,2.66462 2.22381,5.700102 2.59173,8.477175 0.0412,0.433859 0.0841,0.926031 0.12702,1.473384 0.002,0.04123 0.009,0.09152 0.011,0.136148 0.48095,6.507042 0.62026,20.202702 -5.77438,27.150553 -1.21656,0.7275 -2.32904,1.60356 -3.30915,2.61597 -0.007,0.005 -0.0131,0.009 -0.0207,0.0159 h 0.009 c -2.78556,2.88585 -4.50755,6.80432 -4.50755,11.13214 0,8.86072 7.18521,16.04305 16.04305,16.04305 1.67332,0 3.28539,-0.25652 4.80278,-0.73161 v 0 c 0,0 0.0231,-0.009 0.0511,-0.0159 0.005,-0.001 0.009,-0.005 0.0141,-0.005 1.26526,-0.45532 20.99883,-7.16661 27.10521,14.63243 0.12144,0.61616 0.28111,1.21944 0.4695,1.81008 0.001,0.007 0.002,0.0159 0.005,0.0159 l 0.001,-0.001 c 2.19691,6.87229 8.62835,11.85223 16.23015,11.85223 9.41306,0 17.04314,-7.63004 17.04314,-17.04151 0,-9.41196 -7.63008,-17.04317 -17.04314,-17.04317 -2.1314,0 -4.1641,0.40911 -6.04536,1.12533 -8.04531,0.91144 -21.83606,0.26805 -26.84859,-13.45268 -0.79572,-4.489 -3.46035,-8.32505 -7.15492,-10.69407 -2.46654,-2.02703 -8.52447,-9.242111 -5.83717,-29.456208 0.19401,-0.949794 0.93728,-4.39877 2.15272,-7.848312 5.37055,-1.960957 9.21183,-7.099115 9.21183,-13.148958 0,-5.979401 -3.75424,-11.070455 -9.02788,-13.081568 0,0 -1.81868,-6.229327 2.50896,-10.517072 0.94579,-0.549342 1.81889,-1.186692 2.61506,-1.904548 v -0.0015 c 4.31012,-3.889845 6.30984,-10.014829 4.61702,-15.978972 -1.9349,-6.8168574 -8.07356,-11.3014884 -14.80674,-11.4426204 h -0.64693 c -1.31908,0.02474 -2.65612,0.221054 -3.98441,0.598008 -8.36184,2.371899 -13.21733,11.0747424 -10.84387,19.4366004 0.94871,3.343473 2.91859,6.112447 5.46477,8.096672 z"
     style="fill:#fff;fill-opacity:1;fill-rule:evenodd;stroke-width:2.24334431"
     id="path8"
     inkscape:connector-curvature="0" />
  <path
     d="m 32.2021,110.69443 c -1.55195,-5.47311 1.625083,-11.169181 7.098165,-12.721111 5.471743,-1.55308 11.167593,1.62351 12.720658,7.096811 1.553518,5.47311 -1.624628,11.16761 -7.097711,12.7211 -5.471743,1.55308 -11.167594,-1.6246 -12.721112,-7.0968 z"
     style="fill:#fff;fill-opacity:1;fill-rule:evenodd;stroke-width:2.24334431"
     id="path10"
     inkscape:connector-curvature="0" />
  <path
     d="m 52.865772,161.29011 c 4.939843,0 9.3617,-2.185 12.37967,-5.63007 v 0 c 15.48738,-9.66411 25.235163,0 25.235163,0 l 0.0091,-0.0247 c 0.96957,2.515 2.847019,4.54881 5.230582,5.75975 1.203781,2.24091 1.967194,5.77168 -2.119515,8.94533 -0.757776,0.40253 -1.469387,0.87581 -2.142618,1.39785 -0.0115,0.007 -0.0222,0.0159 -0.03301,0.0159 h 0.0068 c -0.607737,0.47428 -1.177082,0.99402 -1.703146,1.55483 l 0.0091,-0.0247 c 0,0 -4.521689,0.44542 -6.627067,-4.70024 l -0.03457,0.0659 c -0.664702,-5.37033 -5.19334,-9.54293 -10.743824,-9.54293 -6.007003,0 -10.877984,4.87008 -10.877984,10.87818 0,6.00703 4.870981,10.87801 10.877984,10.87801 2.0226,0 3.892652,-0.58892 5.514589,-1.55061 l -0.02557,0.0497 c 0,0 6.513103,-1.95865 7.836678,4.17235 0,8.26049 6.697056,14.95592 14.957946,14.95592 8.26023,0 14.95593,-6.69543 14.95593,-14.95592 0,-6.19073 -3.76118,-11.50432 -9.12503,-13.77683 -1.51628,-1.66295 -2.59465,-4.45749 -0.2223,-8.76363 3.1454,-1.90727 5.2694,-5.33082 5.2694,-9.27776 0,-6.0081 -4.87143,-10.87794 -10.87798,-10.87794 -2.358206,0 -4.526401,0.76875 -6.307834,2.04543 l 0.0045,-0.0247 c -17.720852,7.61233 -25.402064,-3.2529 -26.871007,-5.7232 -0.08749,-0.16424 -0.18014,-0.32499 -0.272567,-0.48749 v 0 c -2.838518,-4.96592 -8.175214,-8.31905 -14.302909,-8.31905 -9.099454,0 -16.475565,7.37439 -16.475565,16.47381 0,9.09942 7.376111,16.47377 16.475565,16.47377 z"
     style="fill:#fff;fill-opacity:1;fill-rule:evenodd;stroke-width:2.24334431"
     id="path12"
     inkscape:connector-curvature="0" />
  <path
     d="m 39.101732,76.227256 c 3.814581,2.788943 8.514839,3.472242 12.736812,2.289592 -1.01399,2.484887 -1.583354,5.198281 -1.583354,8.047911 0,11.7738 9.542964,21.318301 21.31671,21.318301 2.473286,0 4.840016,-0.44376 7.048139,-1.21813 2.63032,0.41821 6.276205,2.00824 6.276205,7.65852 h 0.0016 c -0.489044,1.52191 -0.761611,3.1423 -0.761611,4.82547 0,8.68131 7.03625,15.71824 15.71755,15.71824 8.680157,0 15.716637,-7.03693 15.716637,-15.71824 0,-8.67951 -7.03648,-15.71642 -15.716637,-15.71642 -0.740291,0 -1.46199,0.0659 -2.174928,0.16651 -2.717595,-0.11398 -6.934182,-1.53355 -6.20958,-9.418731 l -0.0068,0.001 c 0.909002,-2.36786 1.426544,-4.92972 1.426544,-7.61704 0,-2.03272 -0.302384,-3.99409 -0.834304,-5.85691 l 0.0068,0.0016 c 0,0 -1.933317,-9.426131 8.069085,-12.036497 1.06873,0 2.15272,-0.133655 3.23221,-0.440451 6.28922,-1.784373 9.94093,-8.330194 8.15657,-14.619404 -1.78592,-6.289211 -8.33043,-9.94249 -14.619641,-8.156556 -0.08835,0.02474 -0.169834,0.05775 -0.255534,0.08579 -1.443371,0.468508 -9.221717,2.533235 -13.445264,-5.981216 v 0 c 2.436278,-9.09654 11.971842,-6.99832 11.976321,-6.99832 1.697547,0.6277 3.524747,0.987245 5.440568,0.987245 8.67972,0 15.71641,-7.036675 15.71641,-15.716425 0,-8.5664174 -6.85206,-15.5308384 -15.37318,-15.7137034 h -0.68677 c -8.522697,0.183077 -15.374769,7.147254 -15.374769,15.7136714 0,1.370713 0.194051,2.692924 0.523598,3.961109 -1.995651,7.725663 -7.721337,7.209479 -10.077747,6.625909 -0.340988,-0.122896 -0.686239,-0.22683 -1.038444,-0.318387 v 0 c -1.962702,-0.5048 -4.077055,-0.523772 -6.166732,0.06599 -6.28899,1.784365 -9.940712,8.330429 -8.156354,14.619391 1.784809,6.289293 8.329094,9.941006 14.61988,8.158206 0.654605,-0.187231 1.273771,-0.436339 1.868481,-0.719256 2.720056,-0.766274 7.888497,-1.118314 11.905214,5.207684 h 0.0011 c -0.182361,1.510687 -0.07589,3.081011 0.366806,4.637475 0,0 0.488138,6.400225 -7.96119,7.282058 v 0.0045 c -2.791189,-1.34059 -5.906745,-2.113891 -9.208948,-2.113891 -3.327777,0 -6.465767,0.784424 -9.271519,2.143929 1.18942,-5.537456 -0.860547,-11.505639 -5.728831,-15.063157 -6.598573,-4.824052 -15.859321,-3.385209 -20.684759,3.21381 -4.822965,6.600171 -3.385205,15.860426 3.214943,20.684561 z"
     style="fill:#fff;fill-opacity:1;fill-rule:evenodd;stroke-width:2.24334431"
     id="path14"
     inkscape:connector-curvature="0" />
</svg>
